<svg width="512" height="512" viewBox="0 0 512 512" fill="none" xmlns="http://www.w3.org/2000/svg">
<rect width="512" height="512" rx="100" fill="#1B45F5"/>
<circle cx="374.863" cy="314.553" r="19.1033" fill="white"/>
<circle cx="423.49" cy="257.243" r="19.1033" fill="white"/>
<circle cx="374.863" cy="198.196" r="19.1033" fill="white"/>
<circle cx="350.55" cy="128.73" r="19.1033" fill="white"/>
<circle cx="275.873" cy="140.887" r="19.1033" fill="white"/>
<circle cx="201.196" cy="128.73" r="19.1033" fill="white"/>
<circle cx="176.883" cy="198.196" r="19.1033" fill="white"/>
<circle cx="176.883" cy="314.553" r="19.1033" fill="white"/>
<circle cx="275.873" cy="371.864" r="19.1033" fill="white"/>
<circle cx="201.197" cy="384.019" r="15.63" fill="white"/>
<circle cx="350.55" cy="384.019" r="15.63" fill="white"/>
<circle cx="432.173" cy="349.286" r="15.63" fill="white"/>
<circle cx="432.173" cy="163.464" r="15.63" fill="white"/>
<circle cx="374.863" cy="83.5762" r="10.42" fill="white"/>
<circle cx="175.147" cy="83.5762" r="10.42" fill="white"/>
<circle cx="74.42" cy="257.244" r="10.42" fill="white"/>
<circle cx="129.993" cy="257.243" r="19.1033" fill="white"/>
<circle cx="116.1" cy="166.936" r="13.8933" fill="white"/>
<circle cx="116.1" cy="351.023" r="13.8933" fill="white"/>
<circle cx="176.884" cy="429.172" r="13.8933" fill="white"/>
<circle cx="275.873" cy="437.857" r="13.8933" fill="white"/>
<circle cx="374.863" cy="429.172" r="13.8933" fill="white"/>
<circle cx="275.873" cy="74.8933" r="13.8933" fill="white"/>
<path d="M267.713 319.819C269.371 324.489 275.962 324.525 277.671 319.874L296.812 267.767C297.347 266.31 298.495 265.161 299.952 264.625L351.495 245.652C356.201 243.92 356.085 237.224 351.322 235.656L233.072 196.723C228.892 195.347 224.955 199.375 226.427 203.522L267.713 319.819Z" fill="white"/>
</svg>
